<svg width="1791" height="466" viewBox="0 0 1791 466" fill="none" xmlns="http://www.w3.org/2000/svg">
<path d="M702.864 348.705C741.881 348.954 774.271 353.344 778.413 388.136H732.935C727.964 379.355 716.45 377.284 702.864 377.284C689.362 377.284 672.794 379.272 672.794 388.136C672.794 393.023 686.297 393.686 703.776 394.515C734.841 396.089 778.496 398.243 778.413 426.159C778.413 457.969 741.964 465.507 702.864 465.507C663.848 465.424 631.458 460.702 627.316 426.159H672.794C677.764 434.774 689.279 437.011 702.864 437.011C716.367 437.011 732.934 434.774 732.935 426.159C732.935 421.272 719.432 420.526 701.953 419.697C670.889 418.123 627.234 415.969 627.316 388.136C627.317 356.326 663.765 348.705 702.864 348.705ZM1414.8 348.705C1456.71 348.705 1490.76 360.965 1490.76 403.047V411.165C1490.92 453.247 1456.63 465.424 1414.8 465.507C1372.88 465.424 1338.58 453.247 1338.75 411.165V403.047C1338.58 360.882 1372.88 348.788 1414.8 348.705ZM994.362 408.507C994.197 426.814 1009.19 429.961 1027 430.21C1044.45 429.965 1059.33 426.912 1059.56 409.354V351.432H1103.05V411.24C1103.21 453.322 1068.75 465.416 1027 465.499C985.25 465.416 950.789 453.322 950.955 411.24V351.432H994.362V408.507ZM156.829 408.469V465.497H0V347.162H69.1475L156.829 408.469ZM558.169 465.497H345.023L133.305 295.124V241.659H275.164L558.169 465.497ZM937.897 386.901H886.289V462.946H842.882V386.901H791.273V351.612H937.897V386.901ZM1215.41 351.602C1245.98 351.187 1268.68 376.868 1268.43 407.27C1268.68 437.505 1245.98 463.351 1215.41 462.937H1116.34V351.602H1215.41ZM1325.13 462.766H1281.72V351.432H1325.13V462.766ZM1414.8 383.994C1397.26 384.239 1382.38 387.453 1382.16 404.858V409.274C1382.38 426.759 1397.26 429.973 1414.8 430.218C1432.25 429.973 1447.13 426.758 1447.35 409.274V404.858C1447.13 387.453 1432.25 384.239 1414.8 383.994ZM1159.75 427.647H1207.29C1218.56 427.647 1224.94 418.452 1224.94 407.27C1224.94 396.004 1218.56 386.891 1207.29 386.891H1159.75V427.647ZM1571.16 350.014C1576.02 350.014 1581.33 350.638 1586.41 351.997C1597.32 355.009 1606.79 361.951 1606.79 375.211V378.994C1606.79 388.691 1601.74 395.081 1594.69 398.901C1592.13 400.297 1589.34 401.4 1586.41 402.171C1581.33 403.603 1576.02 404.191 1571.16 404.191C1566.3 404.191 1560.96 403.603 1555.87 402.171C1544.96 399.269 1535.5 392.217 1535.5 378.994V375.211C1535.5 365.477 1540.55 359.123 1547.6 355.303C1550.16 353.907 1552.94 352.805 1555.87 351.997C1560.96 350.638 1566.3 350.014 1571.16 350.014ZM1571.16 357.25C1566.48 357.25 1562.07 357.837 1557.88 358.976H1557.8C1555.32 359.673 1553.13 360.555 1551.16 361.62C1545.59 364.559 1542.81 369.077 1542.81 375.211V378.994C1542.88 381.896 1542.74 391.115 1557.84 395.229C1562.03 396.367 1566.48 396.955 1571.16 396.955C1575.84 396.955 1580.25 396.367 1584.41 395.229H1584.48C1586.97 394.531 1589.16 393.649 1591.12 392.584C1596.69 389.646 1599.47 385.128 1599.47 378.994V375.211C1599.4 372.273 1599.55 363.089 1584.45 358.976C1580.25 357.837 1575.84 357.25 1571.16 357.25ZM1578.92 364.448C1581.81 364.448 1584.26 365.404 1586.3 367.277C1588.34 369.151 1589.38 371.391 1589.38 373.999C1589.38 377.856 1586.97 381.088 1583.37 382.667L1589.38 389.756H1577.91L1573.02 383.585H1563.7V389.756H1552.9V364.448H1578.92ZM1563.7 376.166H1576.21C1577.54 376.166 1578.58 375.211 1578.58 373.999C1578.58 372.824 1577.54 371.868 1576.21 371.868H1563.7V376.166ZM1237.55 214.433L1268.78 181.96H1323.04L1264.64 237.627L1323.04 293.295H1268.78L1237.55 260.739L1206.32 293.295H1151.98L1210.38 237.627L1151.98 181.96H1206.32L1237.55 214.433ZM920.479 210.455H833.582V224.703H920.479V250.466H833.582V264.714H920.479V293.293H790.175V181.959H920.479V210.455ZM1462.24 210.455H1375.34V224.703H1462.24V250.466H1375.34V264.714H1462.24V293.293H1331.94V181.959H1462.24V210.455ZM1704.63 214.432L1735.86 181.959H1790.12L1731.71 237.626L1790.12 293.293H1735.86L1704.63 260.737L1673.4 293.293H1619.05L1677.46 237.626L1619.05 181.959H1673.4L1704.63 214.432ZM1041.12 181.947C1064.07 181.699 1083.53 201 1083.2 224.029C1083.53 246.975 1064.07 266.442 1041.12 266.11H977.253V293.281H933.846V181.947H1041.12ZM734.592 181.87C757.538 181.622 777.005 200.923 776.674 223.952C776.674 232.319 774.437 239.94 769.964 246.732C765.573 253.442 759.691 258.578 752.401 261.975L776.674 293.205H730.45L709.491 266.034H670.724V293.205H627.316V181.87H734.592ZM1139.79 293.113H1096.38V181.779H1139.79V293.113ZM1528.76 257.824H1615.66V293.113H1485.35V181.779H1528.76V257.824ZM556.03 153.265V252.353H427.003L235.243 145.423H176.076L1.42578 0H276.589L556.03 153.265ZM977.253 233.473H1030.27C1032.84 233.473 1035.07 232.562 1036.9 230.739C1038.8 228.834 1039.71 226.597 1039.71 224.029C1039.71 221.379 1038.8 219.142 1036.9 217.319C1035.07 215.414 1032.84 214.503 1030.27 214.503H977.253V233.473ZM670.724 233.396H723.657C726.308 233.395 728.545 232.484 730.367 230.662C732.272 228.757 733.184 226.52 733.184 223.952C733.183 218.651 728.959 214.426 723.657 214.426H670.724V233.396Z" fill="url(#paint0_linear_521_5658)"/>
<defs>
<linearGradient id="paint0_linear_521_5658" x1="5.08397e-07" y1="232.753" x2="1790" y2="466" gradientUnits="userSpaceOnUse">
<stop stop-color="#111111"/>
<stop offset="1" stop-color="#999999"/>
</linearGradient>
</defs>
</svg>
